<?xml version="1.0" encoding="UTF-8"?>
<svg xmlns="http://www.w3.org/2000/svg" version="1.1" viewBox="0 0 1630.9 1567.6">
  <defs>
    <style>
      .cls-1 {
        fill: #19c9f0;
      }

      .cls-2 {
        fill: #0091b0;
      }

      .cls-3 {
        fill: #02394a;
      }

      .cls-4 {
        fill: #0ca5c6;
      }

      .cls-5 {
        fill: #28191b;
      }

      .cls-6 {
        fill: #00708d;
      }
    </style>
  </defs>
  <!-- Generator: Adobe Illustrator 28.6.0, SVG Export Plug-In . SVG Version: 1.2.0 Build 709)  -->
  <g>
    <g id="Layer_1">
      <g>
        <g>
          <g>
            <path class="cls-5" d="M503.5,1373.1c0,8.7-4.6,13-13.7,13h-91.9c-9.2,0-13.7-4.3-13.7-13l1.9-261.5,2.8-26.1-.9,4.5-72,215.9c-1.6,4.6-3.3,7.7-5.2,9.3-1.9,1.6-5.5,2.4-10.9,2.4h-70.6c-5.4,0-8.9-.8-10.7-2.4-1.7-1.6-3.6-4.7-5.4-9.3l-72-214.9,2.4,20.6,1.4,261.5c0,8.7-4.6,13-13.7,13H38.9c-8.8,0-13.3-4.3-13.3-13v-449.3c0-8.5,4.6-12.7,13.7-12.7h122.2c5.4,0,8.8,1,10.4,3.1,1.6,2.1,3,5,4.3,8.9l83.8,236.5,3.8,18.5,4.3-18.2,84.8-236.8c1.3-3.9,2.7-6.9,4.3-8.9,1.6-2.1,5-3.1,10.4-3.1h122.2c8.8,0,13.3,4.2,13.3,12.7l.5,449.3Z"/>
            <path class="cls-5" d="M596.6,924.5c0-4.1,1.4-7.4,4.3-9.8s6.9-3.6,12.3-3.6h97.1c5.4,0,9.4,1.2,12.1,3.6,2.7,2.4,4,5.7,4,9.8v448.6c0,8.7-5.4,13-16.1,13h-97.1c-11.1,0-16.6-4.3-16.6-13v-448.6Z"/>
            <path class="cls-5" d="M808.9,1252.3c0-5.9,1-10.2,3.1-12.7,2-2.5,6.4-3.8,13-3.8h89c6.9,0,11.4,1,13.5,3.1,2,2.1,3.1,5.7,3.1,11v15.4c0,8.7,1.7,15.9,5,21.6,3.3,5.7,7.7,10.4,13,13.9,5.4,3.5,11.2,6.1,17.5,7.5,6.3,1.5,12.6,2.2,18.9,2.2s14.7-1,21.3-2.9c6.6-1.9,12.4-4.7,17.3-8.2,4.9-3.5,8.8-7.8,11.8-12.9,3-5,4.5-10.6,4.5-16.8s-1.7-15.6-5-22.1c-3.3-6.5-8.4-12.9-15.2-19-6.8-6.2-15.6-12.5-26.3-19-10.7-6.5-23.4-14.1-37.9-22.8-25.6-14.6-47.6-27.5-66.1-38.6-18.5-11.1-33.7-22.3-45.7-33.6-12-11.3-20.8-23.8-26.5-37.4-5.7-13.6-8.5-30.3-8.5-49.9s5.8-41.1,17.3-56.8c11.5-15.7,25.9-28.4,43.1-38.3,17.2-9.8,35.8-17,55.9-21.5,20-4.5,38.6-6.7,55.7-6.7,24.9,0,47.9,3,68.9,8.9,21,6,39.1,14.4,54.5,25.2,15.3,10.9,27.2,24,35.8,39.5,8.5,15.4,12.8,32.7,12.8,51.7v19.9c0,5-1.2,8.4-3.6,10.1-2.4,1.7-7.5,2.6-15.4,2.6h-86.7c-6.3,0-10.3-.9-12.1-2.7-1.7-1.8-2.6-5.1-2.6-10v-19.6c0-5.9-1.1-11.6-3.3-16.8-2.2-5.3-5.4-9.8-9.7-13.7-4.3-3.9-9.6-7-16.1-9.3-6.5-2.3-14-3.4-22.5-3.4s-12.1.8-18.2,2.4c-6.2,1.6-11.7,4.1-16.6,7.6-4.9,3.4-8.9,7.9-12.1,13.4-3.2,5.5-4.7,12.1-4.7,19.9s1.7,15.4,5,21.6c3.3,6.2,8.1,12,14.2,17.3,6.2,5.4,13.7,10.6,22.5,15.6,8.8,5,18.6,10.5,29.4,16.5,22.7,12.4,44,24.3,63.7,35.9,19.7,11.6,36.9,24,51.6,37.2,14.7,13.3,26.3,28,34.8,44.1s12.8,35.1,12.8,56.8-4.3,31.2-13,45.6c-8.7,14.4-20.8,27.1-36.5,37.9-15.6,10.9-34.4,19.5-56.4,25.9-22,6.4-46.3,9.6-73.2,9.6s-54.9-3.4-76.7-10.1-40-15.8-54.7-27.3c-14.7-11.4-25.7-24.5-32.9-39.3-7.3-14.8-10.9-30.3-10.9-46.5v-18.2Z"/>
            <path class="cls-5" d="M1242.9,924.5c0-4.1,1.4-7.4,4.3-9.8s6.9-3.6,12.3-3.6h171c24.9,0,48.1,3.2,69.6,9.6,21.5,6.4,39.9,15.2,55.4,26.3,15.5,11.1,27.6,24.1,36.5,39.1,8.8,15,13.3,31.1,13.3,48.2v109.8c0,17.2-4.4,33.3-13.3,48.4-8.8,15.1-21.1,28.3-36.7,39.5-15.6,11.2-34.1,20.1-55.4,26.6-21.3,6.5-44.4,9.8-69.4,9.8h-57.8v104.7c0,8.7-5.4,13-16.1,13h-97.1c-11.1,0-16.6-4.3-16.6-13v-448.6ZM1420.5,1185.7c16.7,0,30.1-3.9,40-11.7,9.9-7.8,14.9-17.5,14.9-29.2v-108.8c0-12.4-5.1-22.4-15.2-30-10.1-7.7-23.5-11.5-40.3-11.5h-47.4v191.2h47.8Z"/>
          </g>
          <g>
            <path class="cls-2" d="M25.6,1439.6h14.1v80.2h-14.1v-80.2Z"/>
            <path class="cls-2" d="M68.6,1439.6h13.1l43,55.4v-55.4h13.9v80.2h-11.8l-44.2-57v57h-13.9v-80.2Z"/>
            <path class="cls-2" d="M184.9,1452.6h-25.4v-13.1h65.1v13.1h-25.4v67.1h-14.2v-67.1Z"/>
            <path class="cls-2" d="M245.5,1439.6h59.5v12.6h-45.4v20.8h40.2v12.6h-40.2v21.5h45.9v12.6h-60v-80.2Z"/>
            <path class="cls-2" d="M330.3,1439.6h14.1v67.4h42.2v12.8h-56.2v-80.2Z"/>
            <path class="cls-2" d="M407.3,1439.6h14.1v67.4h42.2v12.8h-56.2v-80.2Z"/>
            <path class="cls-2" d="M484.8,1439.6h14.1v80.2h-14.1v-80.2Z"/>
            <path class="cls-2" d="M523.9,1479.9v-.2c0-22.5,17.2-41.5,41.4-41.5s22.6,3.9,30.8,10.9l-8.9,10.7c-6.2-5.3-12.3-8.6-22.5-8.6-14.8,0-26,12.9-26,28.3v.2c0,16.5,10.9,28.6,27.3,28.6s14.4-2.4,19.4-6.1v-15h-20.5v-12.3h34.1v33.7c-7.9,6.8-19.2,12.5-33.5,12.5-25.1,0-41.6-17.9-41.6-41.2Z"/>
            <path class="cls-2" d="M625.7,1439.6h59.5v12.6h-45.4v20.8h40.2v12.6h-40.2v21.5h45.9v12.6h-60v-80.2Z"/>
            <path class="cls-2" d="M710.5,1439.6h13.1l43,55.4v-55.4h13.9v80.2h-11.8l-44.2-57v57h-13.9v-80.2Z"/>
            <path class="cls-2" d="M805.1,1479.9v-.2c0-22.8,17.1-41.5,41.4-41.5s23.7,5.2,31.4,12.5l-9.1,10.4c-6.4-6-13.3-10-22.5-10-15.3,0-26.5,12.6-26.5,28.3v.2c0,15.7,11.1,28.5,26.5,28.5s16.2-4,23-10.4l9,9.2c-8.4,8.7-17.5,14.2-32.5,14.2-23.4,0-40.8-18.2-40.8-41.2Z"/>
            <path class="cls-2" d="M900,1439.6h59.5v12.6h-45.4v20.8h40.2v12.6h-40.2v21.5h45.9v12.6h-60v-80.2Z"/>
            <path class="cls-2" d="M1024.3,1508.1l8.5-10.1c7.7,6.6,15.3,10.4,25.3,10.4s14.2-4,14.2-10.1v-.2c0-5.7-3.2-8.8-18.1-12.3-17.1-4.1-26.7-9.2-26.7-23.9v-.2c0-13.7,11.5-23.3,27.4-23.3s21,3.6,29.1,10.1l-7.6,10.7c-7.2-5.4-14.4-8.2-21.8-8.2s-13.1,4.2-13.1,9.5v.2c0,6.2,3.7,8.9,19,12.6,17,4.1,25.8,10.2,25.8,23.5v.2c0,15-11.8,23.9-28.6,23.9s-23.8-4.2-33.5-12.8Z"/>
            <path class="cls-2" d="M1110.6,1439.6h14.1v33.3h38.3v-33.3h14.1v80.2h-14.1v-33.8h-38.3v33.8h-14.1v-80.2Z"/>
            <path class="cls-2" d="M1232.7,1439h13.1l35.3,80.8h-14.9l-8.1-19.4h-37.9l-8.2,19.4h-14.4l35.3-80.8ZM1252.9,1487.9l-13.9-32.1-13.7,32.1h27.6Z"/>
            <path class="cls-2" d="M1301.5,1439.6h35.7c10.1,0,18,3,23.1,8,4.2,4.4,6.6,10.3,6.6,17.3v.2c0,13.2-7.9,21.1-19.1,24.3l21.7,30.4h-16.6l-19.7-28h-17.6v28h-14.1v-80.2ZM1336.2,1479.3c10.1,0,16.5-5.3,16.5-13.4v-.2c0-8.6-6.2-13.3-16.6-13.3h-20.5v26.9h20.6Z"/>
            <path class="cls-2" d="M1392.4,1439.6h14.1v80.2h-14.1v-80.2Z"/>
            <path class="cls-2" d="M1435.4,1439.6h13.1l43,55.4v-55.4h13.9v80.2h-11.8l-44.2-57v57h-13.9v-80.2Z"/>
            <path class="cls-2" d="M1530,1479.9v-.2c0-22.5,17.2-41.5,41.4-41.5s22.6,3.9,30.8,10.9l-8.9,10.7c-6.2-5.3-12.3-8.6-22.5-8.6-14.8,0-26,12.9-26,28.3v.2c0,16.5,10.9,28.6,27.3,28.6s14.4-2.4,19.4-6.1v-15h-20.5v-12.3h34.1v33.7c-7.9,6.8-19.2,12.5-33.5,12.5-25.1,0-41.6-17.9-41.6-41.2Z"/>
          </g>
        </g>
        <g>
          <polygon class="cls-6" points="1073.7 191.6 1073.7 169.3 1050.3 155.8 1026.9 169.3 1026.9 191.6 1050.3 205.1 1073.7 191.6"/>
          <polygon class="cls-1" points="604 191.6 604 169.3 580.6 155.8 557.2 169.3 557.2 191.6 580.6 205.1 604 191.6"/>
          <polygon class="cls-2" points="981.1 142.4 981.3 142.3 815.4 46.5 815.4 159.8 883.1 198.8 981.1 142.3 981.1 142.4"/>
          <polygon class="cls-6" points="649.6 142.3 747.7 198.9 815.4 159.8 815.4 46.5 649.6 142.3"/>
          <polygon class="cls-2" points="649.6 218.6 747.7 275.3 747.7 198.9 649.6 142.3 649.6 218.6"/>
          <polygon class="cls-4" points="981 364.8 981.1 364.8 981.3 251.4 981.1 251.6 981.1 142.4 883.2 198.9 883.1 198.8 883 198.9 883 319.9 981 364.8 981 364.8"/>
          <polygon class="cls-2" points="536.2 397.3 438.1 340.6 438.1 532.2 536.2 475.5 536.2 397.3"/>
          <polygon class="cls-1" points="1026.9 219.8 1026.6 219.9 1026.4 333.3 1026.9 333 1094.7 372.2 1192.8 315.5 1026.9 219.8"/>
          <polygon class="cls-2" points="1094.7 372.2 1094.7 451.7 1192.8 508.3 1192.8 315.5 1094.7 372.2"/>
          <polygon class="cls-6" points="1026.7 489.5 1026.7 602.8 1192.8 508.3 1094.7 451.7 1026.7 489.5"/>
          <polygon class="cls-1" points="604 514.6 604 627.9 659.4 589.3 659.4 476.1 604 514.6"/>
          <polygon class="cls-1" points="744 530.3 772.5 510.5 744 494.1 744 530.3"/>
          <polygon class="cls-4" points="536.2 475.5 438.1 532.2 604 627.9 604 514.6 536.2 475.5"/>
          <polygon class="cls-3" points="815.2 367.1 815.4 367.2 815.4 367.2 815.3 367.1 815.2 367.1"/>
          <polygon class="cls-6" points="604 358.1 604 244.9 438.1 340.6 536.2 397.3 604 358.1"/>
          <polygon class="cls-1" points="815.4 367.2 903.9 418.6 981 364.8 883 320 883 319.9 882.9 319.9 815.4 367 815.6 367.1 815.4 367.2"/>
          <polygon class="cls-1" points="815.2 367 815.2 367.1 815.2 367.1 815.3 367.1 815.2 367"/>
          <polygon class="cls-1" points="815.4 367.2 815.6 367.1 815.4 367 815.3 367.1 815.4 367.2"/>
          <polygon class="cls-3" points="815.5 480.6 815.5 480.5 815.4 480.5 815.4 480.5 815.5 480.6"/>
          <polygon class="cls-3" points="815.2 367.2 815.2 367.1 815.2 367.1 815.2 367.2"/>
          <polygon class="cls-1" points="773.1 698.8 857.7 699.6 857.7 559.9 773.1 510.9 773.1 698.8"/>
          <polygon class="cls-1" points="773.1 778.1 815.4 802.3 857.7 778.1 857.7 745.5 773.1 744.7 773.1 778.1"/>
          <polygon class="cls-3" points="886.5 761 971.2 712.4 971.2 698.6 886.5 697.8 886.5 761"/>
          <polygon class="cls-3" points="886.5 576.5 886.5 651.9 971.2 652.7 971.1 625.4 886.5 576.5"/>
          <path class="cls-3" d="M904.7,419h0l-89.2-52h0s0,0,0,0h0s0,0,0,0l-211.2-122.1v113.3l122.6,71h0s0,0,0,0l76.1,44.1,12.6,7.3,71,41.1,84.6,49h0s55.5,32.1,55.5,32.1v-113.3l-122-70.5ZM815.2,367h0s0,0,0,0h0Z"/>
          <polygon class="cls-2" points="683.7 459.1 659.4 476.1 659.4 589.3 659.4 651.9 744 652.7 744 530.3 744 494.1 683.7 459.1"/>
          <polygon class="cls-2" points="659.4 712.4 744 761 744 698.6 659.4 697.8 659.4 712.4"/>
          <polygon class="cls-5" points="886.5 576.5 971.1 625.4 971.2 570.6 886.5 521.7 886.5 576.5"/>
          <polygon class="cls-5" points="815.5 480.6 815.5 480.6 815.5 480.6 726.7 429.2 726.6 429.2 726.6 429.3 686.3 457.3 686.3 457.2 683.7 459.1 857.7 559.9 857.7 507 857.7 505 815.5 480.6"/>
        </g>
      </g>
    </g>
  </g>
</svg>